<?xml version="1.0" encoding="utf-8"?>
<!-- Generator: Adobe Illustrator 21.0.0, SVG Export Plug-In . SVG Version: 6.00 Build 0)  -->
<svg version="1.1" xmlns="http://www.w3.org/2000/svg" xmlns:xlink="http://www.w3.org/1999/xlink" x="0px" y="0px"
	 viewBox="0 0 128 128" style="enable-background:new 0 0 128 128;" xml:space="preserve">
<style type="text/css">
	.st0{fill:#FFFFFF;}
	.st1{fill:#444B54;}
	.st2{fill:#71C2FF;}
	.st3{font-family:'Calibri';}
	.st4{font-size:53.0976px;}
</style>
<g id="Layer_1">
	<path class="st0" d="M56.2,19.2c8.7-2.3,18.2-0.7,25.8,4.8l0,0l0,0c0,9.9-13.4,21-18,21l0,0c-4.6,0-18-11.1-18-21l0,0l0,0"/>
	<path class="st0" d="M114,64c0-17.8-11.6-33.6-28.6-38.9L82,24c0,9.9-13.4,21-18,21S46,33.9,46,24l-3.4,1.1
		C25.6,30.4,14,46.2,14,64h20v50h60V64H114z"/>
	<path class="st1" d="M94,117H34c-1.7,0-3-1.3-3-3V54c0-1.7,1.3-3,3-3s3,1.3,3,3v57h54V54c0-1.7,1.3-3,3-3s3,1.3,3,3v60
		C97,115.7,95.7,117,94,117z"/>
	<path class="st1" d="M114,67H94c-1.7,0-3-1.3-3-3s1.3-3,3-3h16.9c-1.2-15.3-11.5-28.4-26.4-33.1l-3.4-1.1c-1.6-0.5-2.5-2.2-2-3.8
		c0.5-1.6,2.2-2.5,3.8-2l3.4,1.1C104.6,27.9,117,44.7,117,64C117,65.7,115.7,67,114,67z"/>
	<path class="st1" d="M34,67H14c-1.7,0-3-1.3-3-3c0-19.3,12.4-36.1,30.7-41.8l3.4-1.1c1.6-0.5,3.3,0.4,3.8,2s-0.4,3.3-2,3.8L43.5,28
		c-14.9,4.6-25.2,17.7-26.4,33H34c1.7,0,3,1.3,3,3C37,65.7,35.7,67,34,67z"/>
	<path class="st1" d="M64,48c-6.3,0-21-12.6-21-24c0-1.7,1.3-3,3-3s3,1.3,3,3c0,8.7,12.5,18,15,18c2.4,0,13.6-8.3,14.9-16.5
		c-6.5-4.1-14.4-5.4-21.9-3.4c-1.6,0.4-3.2-0.5-3.7-2.1c-0.4-1.6,0.5-3.2,2.1-3.7c9.8-2.6,20.1-0.6,28.3,5.3C84.5,22.1,85,23,85,24
		c0,7-5.1,13.2-8.1,16.3C73.4,43.9,68,48,64,48z"/>
	<text transform="matrix(1 0 0 1 50.5382 94.3232)" class="st2 st3 st4">8</text>
</g>
<g id="Layer_2">
</g>
</svg>
